# xmcd CD database file
#
# Track frame offsets:
#	150
#	27023
#	64052
#	105778
#	127864
#	141924
#	177316
#	211728
#
# Disc length: 2914 seconds
#
# Revision: 0
# Processed by: cddbd v1.5.2PL0 Copyright (c) Steve Scherf et al.
# Submitted via: CDex 2.00
#
DISCID=600b6008
DTITLE=Mike Walker - Ropes
DYEAR=2017
DGENRE=Jazz
TTITLE0=Still Slippy Underfoot
TTITLE1=Ropes Movement 1 - Bound To Let Go
TTITLE2=Ropes Movement 2 - Knots
TTITLE3=Ropes Movement 3 - Kiss The Hills For Me, Just Once
TTITLE4=Devon Bean
TTITLE5=Wallenda's Last Stand
TTITLE6=Madhouse And The Whole Thing There
TTITLE7=Slip Not...
EXTD=YEAR: 2017
EXTT0=
EXTT1=
EXTT2=
EXTT3=
EXTT4=
EXTT5=
EXTT6=
EXTT7=
PLAYORDER=
